<svg preserveAspectRatio="none" width="100%" height="100%" overflow="visible" style="display: block;" viewBox="0 0 32 32" fill="none" xmlns="http://www.w3.org/2000/svg">
<g id="Frame" clip-path="url(#clip0_0_12)">
<g id="Vector">
</g>
<path id="Vector_2" d="M21 8C21 5.23858 18.7614 3 16 3C13.2386 3 11 5.23858 11 8V16C11 18.7614 13.2386 21 16 21C18.7614 21 21 18.7614 21 16V8Z" stroke="var(--stroke-0, white)" stroke-width="1.5" stroke-linecap="round" stroke-linejoin="round"/>
<path id="Vector_3" d="M16 25V30" stroke="var(--stroke-0, white)" stroke-width="1.5" stroke-linecap="round" stroke-linejoin="round"/>
<path id="Vector_4" d="M25 16C25 18.3869 24.0518 20.6761 22.364 22.364C20.6761 24.0518 18.3869 25 16 25C13.6131 25 11.3239 24.0518 9.63604 22.364C7.94821 20.6761 7 18.3869 7 16" stroke="var(--stroke-0, white)" stroke-width="1.5" stroke-linecap="round" stroke-linejoin="round"/>
</g>
<defs>
<clipPath id="clip0_0_12">
<rect width="32" height="32" fill="white"/>
</clipPath>
</defs>
</svg>
