<svg preserveAspectRatio="none" width="100%" height="100%" overflow="visible" style="display: block;" viewBox="0 0 71 71.5" fill="none" xmlns="http://www.w3.org/2000/svg">
<path id="Vector" fill-rule="evenodd" clip-rule="evenodd" d="M67.4127 1.32566C67.23 1.25768 66.8117 0.807633 66.3226 0.795913C62.8521 0.712701 57.8284 11.3931 56.2139 14.6759C57.8897 15.746 59.4829 17.0059 60.8605 18.4392C64.2969 14.0067 67.0332 7.88183 67.5683 2.24333C67.6095 2.09801 67.7639 2.13199 67.7757 2.21755C68.0502 4.47014 67.4657 7.6029 66.6762 10.2352C63.9504 19.3182 56.0855 28.5173 49.5474 32.2571C39.2572 38.1406 15.5575 43.0266 10.9026 29.0669C10.0424 26.4909 10.3405 24.0695 11.3387 21.8861C15.1262 13.6047 26.7033 9.73008 35.2187 9.39723C41.369 9.15697 47.6843 10.3383 53.0569 12.9214C55.1686 9.00227 57.8472 4.14315 61.5063 1.49325C63.2351 0.240384 65.2172 -0.356164 66.4582 0.221632C66.708 0.336488 66.9484 0.495881 67.131 0.711529C67.2418 0.843965 67.5789 1.26237 67.4139 1.32683L67.4127 1.32566ZM56.0207 15.0721C54.1575 18.8858 52.206 23.1811 50.1826 27.5668C54.0361 25.395 57.5361 22.5248 60.3314 19.1037C59.1329 17.5544 57.6693 16.2112 56.0195 15.0709L56.0207 15.0721ZM12.3121 23.7601C11.777 28.4376 15.1403 30.8495 19.0622 32.2114C21.0302 32.8935 23.1679 33.2967 25.3964 33.4631C25.3056 33.0822 25.2349 32.6978 25.1795 32.3099C24.7824 29.4373 25.4117 26.4557 27.3231 23.7613C27.831 23.0464 28.4285 22.3525 29.1226 21.6845C29.1957 21.6153 29.3112 21.6165 29.383 21.6892C29.4526 21.7642 29.4514 21.879 29.3783 21.9505C28.7019 22.5987 28.1197 23.2761 27.626 23.9722C25.7699 26.5858 25.1607 29.476 25.5448 32.2606C25.6026 32.6744 25.6815 33.0834 25.7817 33.4901C31.9356 33.8733 38.7423 32.4845 44.5579 30.2131C47.2742 24.5454 49.9116 18.7897 52.8777 13.2473C47.5358 10.6454 41.1487 9.53318 35.2305 9.76524C27.0721 10.0817 13.3738 14.4321 12.3097 23.7613L12.3121 23.7601ZM62.3136 20.1316C64.0636 22.4229 65.0452 24.8231 65.3834 27.1824C66.8305 37.2709 57.218 44.3733 48.1003 45.741C45.7788 46.0879 43.4077 46.1172 41.0933 45.8137C38.437 50.4595 35.3271 55.3842 30.9763 58.6412C35.3071 60.8375 39.6367 63.0104 44.4542 64.0758C55.9217 66.6132 64.5585 62.5791 69.7366 52.0686C70.0418 51.4322 70.4012 50.3915 70.743 49.8547C70.9657 49.5043 71.0022 53.0086 70.9999 53.4317C70.9115 63.7758 65.506 70.3671 54.9718 71.3563C46.9313 72.1099 41.1923 69.8491 34.4551 65.7764C28.3719 62.0998 22.9534 58.1888 16.0147 56.1179C11.8819 54.8896 -1.07746 53.8688 1.15688 61.1938C1.27472 61.5665 1.48095 61.9017 1.59054 62.2721C1.59879 62.299 1.60586 62.3225 1.59172 62.3482C1.38078 62.2639 0.97186 61.8923 0.813948 61.7119C0.565296 61.4294 0.393242 61.1259 0.256543 60.7754C-0.68975 58.2955 1.14156 55.3362 3.14138 53.9298C7.95416 50.5896 15.4008 52.2046 20.5494 53.945C23.0371 54.79 25.4176 55.8741 27.7627 57.0274C29.297 55.7651 30.71 54.3704 31.9827 52.8668C33.7633 50.7595 35.531 47.976 37.2162 44.9675C33.6302 43.8482 30.314 41.8124 28.0054 38.8332C28.1575 38.8297 28.3107 38.8227 28.4639 38.818C30.7241 41.6308 33.9578 43.5986 37.4035 44.6288C38.8955 41.9379 40.3167 39.0829 41.62 36.3826C43.5751 35.7497 45.4076 35.0312 47.0421 34.2706C45.186 38.1535 43.2769 41.9531 41.3278 45.3976C47.4722 46.0106 53.8264 43.9935 58.1831 39.9677C61.6336 36.7799 64.4277 32.5114 63.6275 26.9327C63.3176 24.7762 62.6376 22.8377 61.6607 21.1102C61.8822 20.7867 62.1003 20.4621 62.3112 20.1328L62.3136 20.1316ZM26.4687 61.5595C20.0061 65.1013 12.8919 66.2979 4.81006 64.4473C4.77942 64.3477 4.92908 64.2797 5.08818 64.2879C8.99237 64.4977 12.3981 64.1508 15.8144 63.2226C18.5991 62.4655 21.2223 61.3415 23.6369 59.9187C24.5903 60.4449 25.5319 60.9958 26.4687 61.5595Z" fill="var(--fill-0, #1E4192)"/>
</svg>
